<?xml version="1.0" encoding="UTF-8"?>
<svg width="285px" height="77px" viewBox="0 0 285 77" version="1.1" xmlns="http://www.w3.org/2000/svg" xmlns:xlink="http://www.w3.org/1999/xlink">
    <!-- Generator: Sketch 41.2 (35397) - http://www.bohemiancoding.com/sketch -->
    <title>Group 5 Copy</title>
    <desc>Created with Sketch.</desc>
    <defs>
        <polygon id="path-1" points="284.191688 9.50617283e-05 216.868875 9.50617283e-05 216.868875 75.9816988 284.191688 75.9816988 284.191688 9.50617283e-05"></polygon>
    </defs>
    <g id="Page-1" stroke="none" stroke-width="1" fill="none" fill-rule="evenodd">
        <g id="Desktop-HD" transform="translate(-363.000000, -303.000000)">
            <g id="Group-6" transform="translate(363.000000, 303.000000)">
                <g id="Group-5-Copy">
                    <polygon id="Fill-1" fill="#FFFFFF" points="0 0.000190123457 0 75.982079 10.8271875 75.982079 10.8271875 43.4814247 40.843125 43.4814247 40.843125 32.3915235 10.8271875 32.3915235 10.8271875 10.9788691 44.70375 10.9788691 44.70375 0.000190123457"></polygon>
                    <polygon id="Fill-2" fill="#FFFFFF" points="69.6810938 0.000190123457 69.6810938 75.982079 115.777031 75.982079 115.777031 65.0014988 80.5082813 65.0014988 80.5082813 0.000190123457"></polygon>
                    <path d="M138.719437,53.1557617 L138.719437,9.50617283e-05 L149.6535,9.50617283e-05 L149.6535,53.2650827 C149.6535,61.6343173 158.55225,65.7637988 166.4835,65.7637988 C174.30975,65.7637988 183.209437,61.5249963 183.209437,53.1557617 L183.209437,9.50617283e-05 L194.142562,9.50617283e-05 L194.142562,53.2650827 C194.142562,68.7002556 179.347875,76.744379 166.4835,76.744379 C153.297562,76.744379 138.719437,68.7002556 138.719437,53.1557617" id="Fill-3" fill="#FFFFFF"></path>
                    <mask id="mask-2" fill="white">
                        <use xlink:href="#path-1"></use>
                    </mask>
                    <g id="Clip-6"></g>
                    <path d="M260.792625,32.6478099 C268.468875,21.9647728 278.051062,8.64377284 284.191687,-0.000190123457 L271.006687,-0.000190123457 L254.204812,23.3697852 L260.792625,32.6478099 Z M239.9295,13.6573284 L230.162625,-0.000190123457 L216.868875,-0.000190123457 L243.99075,37.8267728 C235.949813,49.0231432 223.730438,66.3072667 216.868875,75.9816988 L230.162625,75.9816988 L250.531688,47.5050074 L271.006688,75.9816988 L284.191688,75.9816988 L239.9295,13.6573284 Z" id="Fill-5" fill="#FFFFFF" mask="url(#mask-2)"></path>
                </g>
            </g>
        </g>
    </g>
</svg>